<svg width="383" height="438" viewBox="0 0 383 438" fill="none" xmlns="http://www.w3.org/2000/svg">
<path d="M-51.9716 697.808C-53.5424 697.358 -55.0589 696.923 -56.6839 696.457C-182.141 658.08 -211.626 548.307 -185.216 456.612L-155.995 355.117C-135.082 282.59 -110.503 197.285 -106.715 184.073L-105.861 181.095C-67.8291 39.8762 30.0253 -24.5931 155.835 8.66949L156.864 8.96458L157.893 9.25967C211.53 26.2219 248.511 51.5931 273.944 77.5792C302.657 61.2592 331.421 48.6457 357.084 41.1203L382.457 127.622C361.531 133.752 341.152 142.676 322.057 153.257C337.222 194.816 338.962 240.671 326.457 282.441C305.662 351.896 250.428 391.2 194.809 376.247C115.757 357.564 105.78 304.66 105.149 282.738C103.678 230.631 144.39 175.326 198.197 130.163C182.063 116.923 160.558 104.838 131.72 95.631C30.2142 69.3961 -2.84604 145.237 -18.8802 204.63C-19.3926 206.417 -19.8118 207.879 -20.1379 209.016C-23.9263 222.228 -48.5355 307.642 -69.4493 380.168L-98.6544 481.609C-123.496 567.835 -66.5678 599.278 -30.3945 610.295C54.0612 636.094 84.5181 581.188 86.7356 576.726C93.4737 553.636 127.449 449.461 128.915 444.959L214.623 472.934C204.589 503.634 177.652 586.74 173.087 602.659C166.054 627.188 139.769 663.659 98.7219 685.994C68.1823 702.552 17.4897 717.843 -52.111 697.885L-51.9716 697.808ZM195.241 280.092C196.432 281.254 201.598 285.314 216.115 288.656L218.119 289.231C223.235 288.764 240.425 271.542 243.992 236.82C244.601 231.017 245.027 221.763 243.643 210.643C212.489 239.975 193.673 267.981 195.256 280.038L195.241 280.092Z" fill="#F2E7DC"/>
</svg>
