<svg width="294" height="473" viewBox="0 0 294 473" fill="none" xmlns="http://www.w3.org/2000/svg">
<path d="M447.769 400.551L422.269 428.379C370.442 484.938 280.5 487.356 221.695 433.803C208.174 421.414 198.424 411.948 188.126 401.847C181.308 395.134 174.168 388.192 165.407 379.898C136.59 352.628 93.0761 311.492 90.3963 246.407C60.682 261.995 37.6282 273.581 35.5896 274.572L0.384119 204.482C1.16401 204.066 62.8906 173.067 115.456 143.646C133.452 104.555 161.488 62.5632 218.051 0.836118L275.896 53.841C265.53 65.1528 256.309 75.6515 247.994 85.4514C299.969 81.3524 337.237 107.457 363.556 131.574C375.017 142.076 387.918 154.562 400.385 166.651C412.454 178.375 424.99 190.461 435.655 200.234C494.332 254.001 499.764 343.88 447.805 400.584L447.769 400.551ZM177.647 198.44C177.088 199.922 176.531 201.473 176.008 202.987C156.421 258.041 179.326 285.013 219.366 322.899C228.525 331.558 235.957 338.834 243.101 345.845C252.889 355.413 262.099 364.451 274.605 375.844C301.497 400.353 341.809 400.127 364.494 375.371L389.993 347.543C412.744 322.715 409.492 282.57 382.703 258.022C371.242 247.52 358.341 235.034 345.874 222.945C333.805 211.221 321.269 199.135 310.604 189.362C266.172 148.648 236.836 161.791 200.194 184.794C193.305 189.119 185.699 193.718 177.68 198.404L177.647 198.44Z" fill="#F2E7DC"/>
</svg>
